<svg width="657.9px" height="122px" xmlns="http://www.w3.org/2000/svg" viewBox="-78.94687499999998 14 657.89375 122" style="background: rgba(0, 0, 0, 0)" preserveAspectRatio="xMidYMid"><defs><linearGradient id="editing-rainbow-gradient" x1="0" x2="1" y1="0.5" y2="0.5" gradientUnits="objectBoundingBox"><stop offset="0" stop-color="#ff0000"></stop><stop offset="0.2" stop-color="#ff9900"></stop><stop offset="0.3" stop-color="#ffff44"></stop><stop offset="0.5" stop-color="#99ff00"></stop><stop offset="0.7" stop-color="#0099ff"></stop><stop offset="0.8" stop-color="#0000ff"></stop><stop offset="1" stop-color="#9900ff"></stop></linearGradient><filter id="editing-rainbow" x="-100%" y="-100%" width="300%" height="300%"><feMorphology operator="dilate" radius="1,2" in="SourceGraphic" result="dilate"></feMorphology><feColorMatrix in="dilate" result="color" type="matrix" values="0.7 0 0 0 0  0 0.7 0 0 0  0 0 0.7 0 0  0 0 0 1 0"></feColorMatrix><feOffset dy="2" result="offset"></feOffset><feGaussianBlur stdDeviation="3"></feGaussianBlur><feOffset dy="3"></feOffset><feColorMatrix result="blur" type="matrix" values="0.7 0 0 0 0  0 0.7 0 0 0  0 0 0.7 0 0  0 0 0 1 0"></feColorMatrix><feMerge><feMergeNode in="blur"></feMergeNode><feMergeNode in="offset"></feMergeNode><feMergeNode in="SourceGraphic"></feMergeNode></feMerge></filter></defs><g filter="url(#editing-rainbow)"><g transform="matrix(1.3,0,0,1.5,-53.6,174.7)"><path d="M 10.9 -50.5 L -3 -50.5 L 5.1 -92.7 L 19.2 -92.7 L 10.9 -50.5 Z M 66.7 -49.2 L 66.7 -49.2 L 66.7 -49.2 Q 58.9 -49.2 58.9 -55.2 L 58.9 -55.2 L 58.9 -55.2 Q 58.9 -57.8 60.1 -62.9 L 60.1 -62.9 L 60.1 -62.9 Q 61.2 -68 61.6 -70.1 L 61.6 -70.1 L 61.6 -70.1 Q 62.5 -74.7 62.5 -76.2 L 62.5 -76.2 L 62.5 -76.2 Q 62.5 -79.5 60 -79.5 L 60 -79.5 L 60 -79.5 Q 58.4 -79.5 56.9 -77.3 L 56.9 -77.3 L 56.9 -77.3 Q 55.4 -75.1 54.7 -70.6 L 54.7 -70.6 L 50.7 -50.5 L 38.2 -49.2 L 41.7 -66.6 L 41.7 -66.6 Q 42.2 -69.5 42.7 -72.8 L 42.7 -72.8 L 42.7 -72.8 Q 43.3 -76 43.3 -76.5 L 43.3 -76.5 L 43.3 -76.5 Q 43.3 -79.5 41.1 -79.5 L 41.1 -79.5 L 41.1 -79.5 Q 39.6 -79.5 38 -77.3 L 38 -77.3 L 38 -77.3 Q 36.4 -75.1 35.5 -70.6 L 35.5 -70.6 L 31.6 -50.5 L 19 -49.2 L 25.7 -83.1 L 36.2 -84.4 L 35.1 -77.9 L 35.1 -77.9 Q 36.7 -81.4 39.8 -82.9 L 39.8 -82.9 L 39.8 -82.9 Q 42.9 -84.4 47.7 -84.4 L 47.7 -84.4 L 47.7 -84.4 Q 50.4 -84.4 52.2 -83.1 L 52.2 -83.1 L 52.2 -83.1 Q 54 -81.7 54.6 -79.5 L 54.6 -79.5 L 54.6 -79.5 Q 55.7 -81.8 58.5 -83.1 L 58.5 -83.1 L 58.5 -83.1 Q 61.2 -84.4 64.7 -84.4 L 64.7 -84.4 L 64.7 -84.4 Q 68.1 -84.4 69.8 -83.7 L 69.8 -83.7 L 69.8 -83.7 Q 71.5 -82.9 72.5 -81.7 L 72.5 -81.7 L 72.5 -81.7 Q 74.2 -79.5 74.2 -75.4 L 74.2 -75.4 L 74.2 -75.4 Q 74.2 -71.3 72.5 -63 L 72.5 -63 L 72.5 -63 Q 71.6 -58.9 71.6 -57.4 L 71.6 -57.4 L 71.6 -57.4 Q 71.6 -55.9 72.5 -55 L 72.5 -55 L 72.5 -55 Q 73.3 -54.1 74.6 -53.9 L 74.6 -53.9 L 74.6 -53.9 Q 74 -51.8 71.8 -50.5 L 71.8 -50.5 L 71.8 -50.5 Q 69.6 -49.2 66.7 -49.2 Z M 82.3 -52.4 L 82.3 -52.4 L 82.3 -52.4 Q 80.8 -54.1 80.2 -56.7 L 80.2 -56.7 L 80.2 -56.7 Q 79.5 -59.3 79.5 -63.6 L 79.5 -63.6 L 79.5 -63.6 Q 79.5 -67.9 81 -71.8 L 81 -71.8 L 81 -71.8 Q 82.4 -75.7 85.1 -78.5 L 85.1 -78.5 L 85.1 -78.5 Q 90.6 -84.4 99.7 -84.4 L 99.7 -84.4 L 99.7 -84.4 Q 103 -84.4 105.3 -83.3 L 105.3 -83.3 L 116.3 -84.4 L 111.5 -59.4 L 111.5 -59.4 Q 111.4 -58.7 111.4 -57.3 L 111.4 -57.3 L 111.4 -57.3 Q 111.4 -55.9 112.2 -55 L 112.2 -55 L 112.2 -55 Q 113.1 -54.1 114.4 -53.9 L 114.4 -53.9 L 114.4 -53.9 Q 113.7 -51.8 111.4 -50.5 L 111.4 -50.5 L 111.4 -50.5 Q 109.1 -49.2 106.4 -49.2 L 106.4 -49.2 L 106.4 -49.2 Q 103.8 -49.2 102 -50.2 L 102 -50.2 L 102 -50.2 Q 100.3 -51.2 99.8 -52.9 L 99.8 -52.9 L 99.8 -52.9 Q 98.7 -51.3 96.6 -50.2 L 96.6 -50.2 L 96.6 -50.2 Q 94.4 -49.2 91.5 -49.2 L 91.5 -49.2 L 91.5 -49.2 Q 88.6 -49.2 86.2 -50 L 86.2 -50 L 86.2 -50 Q 83.8 -50.7 82.3 -52.4 Z M 95.8 -78.4 L 95.8 -78.4 L 95.8 -78.4 Q 95.1 -77.2 94.5 -75.3 L 94.5 -75.3 L 94.5 -75.3 Q 93.8 -73.3 92.8 -68.1 L 92.8 -68.1 L 92.8 -68.1 Q 91.7 -62.9 91.7 -59.2 L 91.7 -59.2 L 91.7 -59.2 Q 91.7 -55.5 92.3 -54.4 L 92.3 -54.4 L 92.3 -54.4 Q 92.9 -53.3 93.9 -53.3 L 93.9 -53.3 L 93.9 -53.3 Q 95.9 -53.3 97.4 -55.3 L 97.4 -55.3 L 97.4 -55.3 Q 98.9 -57.2 99.5 -60.7 L 99.5 -60.7 L 102.9 -79.4 L 102.9 -79.4 Q 101.6 -80.6 100 -80.6 L 100 -80.6 L 100 -80.6 Q 98.4 -80.6 97.5 -80.1 L 97.5 -80.1 L 97.5 -80.1 Q 96.6 -79.5 95.8 -78.4 Z M 124 -77.2 L 124 -77.2 L 124 -77.2 Q 126.2 -80.3 129.5 -82.4 L 129.5 -82.4 L 129.5 -82.4 Q 132.8 -84.4 136.8 -84.4 L 136.8 -84.4 L 136.8 -84.4 Q 140.9 -84.4 142.8 -83.1 L 142.8 -83.1 L 155.3 -84.4 L 151 -59.8 L 151 -59.8 Q 148.7 -47.3 144 -42.4 L 144 -42.4 L 144 -42.4 Q 139.5 -37.7 130.6 -37.7 L 130.6 -37.7 L 130.6 -37.7 Q 123.9 -37.7 120.1 -39.8 L 120.1 -39.8 L 120.1 -39.8 Q 116.2 -41.9 116.2 -45.4 L 116.2 -45.4 L 116.2 -45.4 Q 116.2 -48.1 118.2 -49.6 L 118.2 -49.6 L 118.2 -49.6 Q 120.2 -51.1 123.3 -51.1 L 123.3 -51.1 L 123.3 -51.1 Q 125.9 -51.1 128 -49.8 L 128 -49.8 L 128 -49.8 Q 129.2 -49.2 129.8 -48.3 L 129.8 -48.3 L 129.8 -48.3 Q 128.3 -47 128.3 -44.9 L 128.3 -44.9 L 128.3 -44.9 Q 128.3 -42.2 130.9 -42.2 L 130.9 -42.2 L 130.9 -42.2 Q 135.2 -42.2 137.6 -52.3 L 137.6 -52.3 L 137.6 -52.3 Q 138.3 -55 138.9 -57.8 L 138.9 -57.8 L 138.9 -57.8 Q 136 -54.3 129.5 -54.3 L 129.5 -54.3 L 129.5 -54.3 Q 124.9 -54.3 122.3 -56.4 L 122.3 -56.4 L 122.3 -56.4 Q 119.7 -58.6 119.7 -63.7 L 119.7 -63.7 L 119.7 -63.7 Q 119.7 -66.9 120.8 -70.5 L 120.8 -70.5 L 120.8 -70.5 Q 121.9 -74.2 124 -77.2 Z M 132.3 -63.5 L 132.3 -63.5 L 132.3 -63.5 Q 132.3 -59.2 134.6 -59.2 L 134.6 -59.2 L 134.6 -59.2 Q 136.1 -59.2 137.6 -60.9 L 137.6 -60.9 L 137.6 -60.9 Q 138.7 -62.2 139.2 -64.2 L 139.2 -64.2 L 142.5 -80.6 L 142.5 -80.6 Q 142.1 -80.7 141.8 -80.8 L 141.8 -80.8 L 141.8 -80.8 Q 141.2 -81.1 140.3 -81.1 L 140.3 -81.1 L 140.3 -81.1 Q 136.4 -81.1 134.1 -74.7 L 134.1 -74.7 L 134.1 -74.7 Q 132.3 -69.7 132.3 -63.5 Z M 183.7 -61.3 L 183.7 -61.3 L 183.7 -61.3 Q 185.3 -60.2 185.3 -57.8 L 185.3 -57.8 L 185.3 -57.8 Q 185.3 -55.4 184.1 -53.9 L 184.1 -53.9 L 184.1 -53.9 Q 182.9 -52.3 180.9 -51.3 L 180.9 -51.3 L 180.9 -51.3 Q 176.8 -49.2 172.4 -49.2 L 172.4 -49.2 L 172.4 -49.2 Q 168 -49.2 165.4 -50.2 L 165.4 -50.2 L 165.4 -50.2 Q 162.8 -51.1 161.1 -52.9 L 161.1 -52.9 L 161.1 -52.9 Q 157.7 -56.3 157.7 -62.5 L 157.7 -62.5 L 157.7 -62.5 Q 157.7 -72.2 162.9 -78.1 L 162.9 -78.1 L 162.9 -78.1 Q 168.6 -84.4 178.4 -84.4 L 178.4 -84.4 L 178.4 -84.4 Q 184.4 -84.4 187.5 -81.8 L 187.5 -81.8 L 187.5 -81.8 Q 189.7 -79.9 189.7 -76.8 L 189.7 -76.8 L 189.7 -76.8 Q 189.7 -65.5 170.2 -65.5 L 170.2 -65.5 L 170.2 -65.5 Q 170 -63.9 170 -62.5 L 170 -62.5 L 170 -62.5 Q 170 -59.5 171.3 -58.4 L 171.3 -58.4 L 171.3 -58.4 Q 172.6 -57.3 175 -57.3 L 175 -57.3 L 175 -57.3 Q 177.5 -57.3 180.1 -58.4 L 180.1 -58.4 L 180.1 -58.4 Q 182.7 -59.5 183.7 -61.3 Z M 170.7 -68.3 L 170.7 -68.3 L 170.7 -68.3 Q 175.2 -68.3 177.9 -71.1 L 177.9 -71.1 L 177.9 -71.1 Q 180.5 -73.8 180.5 -78.1 L 180.5 -78.1 L 180.5 -78.1 Q 180.5 -79.5 179.9 -80.3 L 179.9 -80.3 L 179.9 -80.3 Q 179.4 -81.1 178.3 -81.1 L 178.3 -81.1 L 178.3 -81.1 Q 177.2 -81.1 176.3 -80.7 L 176.3 -80.7 L 176.3 -80.7 Q 175.4 -80.3 174.4 -78.9 L 174.4 -78.9 L 174.4 -78.9 Q 172 -75.7 170.7 -68.3 Z M 211 -72.9 L 211 -72.9 L 211 -72.9 Q 211.9 -75.3 211.9 -77.4 L 211.9 -77.4 L 211.9 -77.4 Q 211.9 -81.1 208.8 -81.1 L 208.8 -81.1 L 208.8 -81.1 Q 207.2 -81.1 205.9 -79.7 L 205.9 -79.7 L 205.9 -79.7 Q 204.6 -78.3 204.6 -76.5 L 204.6 -76.5 L 204.6 -76.5 Q 204.6 -75.2 205.6 -74.2 L 205.6 -74.2 L 205.6 -74.2 Q 207.1 -72.8 210.9 -70.5 L 210.9 -70.5 L 210.9 -70.5 Q 214.7 -68.1 216.1 -66.3 L 216.1 -66.3 L 216.1 -66.3 Q 217.5 -64.4 217.5 -61.8 L 217.5 -61.8 L 217.5 -61.8 Q 217.5 -59.2 216.3 -56.8 L 216.3 -56.8 L 216.3 -56.8 Q 215 -54.5 212.8 -52.8 L 212.8 -52.8 L 212.8 -52.8 Q 208 -49.2 200.3 -49.2 L 200.3 -49.2 L 200.3 -49.2 Q 196.2 -49.2 193 -51.4 L 193 -51.4 L 193 -51.4 Q 189.8 -53.5 189.8 -56 L 189.8 -56 L 189.8 -56 Q 189.8 -58.5 191.6 -60 L 191.6 -60 L 191.6 -60 Q 193.4 -61.4 196.1 -61.4 L 196.1 -61.4 L 196.1 -61.4 Q 198.8 -61.4 200.4 -60.4 L 200.4 -60.4 L 200.4 -60.4 Q 199.6 -58.3 199.6 -56.9 L 199.6 -56.9 L 199.6 -56.9 Q 199.6 -52.7 203.2 -52.7 L 203.2 -52.7 L 203.2 -52.7 Q 204.7 -52.7 205.8 -53.6 L 205.8 -53.6 L 205.8 -53.6 Q 206.8 -54.6 206.8 -56.2 L 206.8 -56.2 L 206.8 -56.2 Q 206.8 -59.5 201.3 -63 L 201.3 -63 L 201.3 -63 Q 196.8 -65.9 195.8 -67.1 L 195.8 -67.1 L 195.8 -67.1 Q 194 -69.1 194 -71.7 L 194 -71.7 L 194 -71.7 Q 194 -74.2 195.3 -76.7 L 195.3 -76.7 L 195.3 -76.7 Q 196.5 -79.1 198.7 -80.8 L 198.7 -80.8 L 198.7 -80.8 Q 203.4 -84.4 211.5 -84.4 L 211.5 -84.4 L 211.5 -84.4 Q 215.7 -84.4 218.1 -82.7 L 218.1 -82.7 L 218.1 -82.7 Q 220.6 -81.1 220.6 -78.3 L 220.6 -78.3 L 220.6 -78.3 Q 220.6 -75.4 218.9 -73.8 L 218.9 -73.8 L 218.9 -73.8 Q 217.2 -72.2 214.1 -72.2 L 214.1 -72.2 L 214.1 -72.2 Q 212 -72.2 211 -72.9 Z M 262.1 -71.1 L 275 -72.2 L 275 -72.2 Q 270.4 -62.1 270.4 -50.4 L 270.4 -50.4 L 270.4 -50.4 Q 268.7 -49.2 266.1 -49.2 L 266.1 -49.2 L 266.1 -49.2 Q 263.6 -49.2 262 -50.4 L 262 -50.4 L 262 -50.4 Q 260.4 -51.6 260.1 -52.8 L 260.1 -52.8 L 260.1 -52.8 Q 258.5 -51.1 255.9 -50.2 L 255.9 -50.2 L 255.9 -50.2 Q 253.3 -49.2 250.6 -49.2 L 250.6 -49.2 L 250.6 -49.2 Q 247.8 -49.2 245.4 -50.1 L 245.4 -50.1 L 245.4 -50.1 Q 243 -51 241.1 -53 L 241.1 -53 L 241.1 -53 Q 237.1 -57.3 237.1 -65.6 L 237.1 -65.6 L 237.1 -65.6 Q 237.1 -78.4 243.9 -86.1 L 243.9 -86.1 L 243.9 -86.1 Q 250.9 -94 263.4 -94 L 263.4 -94 L 263.4 -94 Q 272.1 -94 275.1 -89.5 L 275.1 -89.5 L 275.1 -89.5 Q 276.1 -88.1 276.1 -86.4 L 276.1 -86.4 L 276.1 -86.4 Q 276.1 -84.7 275.4 -83.3 L 275.4 -83.3 L 275.4 -83.3 Q 274.6 -81.8 273.5 -80.7 L 273.5 -80.7 L 273.5 -80.7 Q 270.7 -78.1 267.3 -78.1 L 267.3 -78.1 L 267.3 -78.1 Q 266 -78.1 264.7 -78.6 L 264.7 -78.6 L 264.7 -78.6 Q 265 -80.5 265 -82.7 L 265 -82.7 L 265 -82.7 Q 265 -85 264.8 -86 L 264.8 -86 L 264.8 -86 Q 264.6 -87 264.3 -87.9 L 264.3 -87.9 L 264.3 -87.9 Q 263.4 -89.6 261.6 -89.6 L 261.6 -89.6 L 261.6 -89.6 Q 259.8 -89.6 257.8 -87.6 L 257.8 -87.6 L 257.8 -87.6 Q 255.7 -85.7 254.1 -82.5 L 254.1 -82.5 L 254.1 -82.5 Q 250.6 -75.3 250.6 -66.7 L 250.6 -66.7 L 250.6 -66.7 Q 250.6 -62.7 252.2 -59.9 L 252.2 -59.9 L 252.2 -59.9 Q 253.8 -56.8 256.8 -56.8 L 256.8 -56.8 L 256.8 -56.8 Q 257.8 -56.8 258.7 -57.3 L 258.7 -57.3 L 258.7 -57.3 Q 259.6 -57.8 260 -58.2 L 260 -58.2 L 262.1 -71.1 Z M 280.9 -52.4 L 280.9 -52.4 L 280.9 -52.4 Q 279.4 -54.1 278.7 -56.7 L 278.7 -56.7 L 278.7 -56.7 Q 278.1 -59.3 278.1 -63.6 L 278.1 -63.6 L 278.1 -63.6 Q 278.1 -67.9 279.5 -71.8 L 279.5 -71.8 L 279.5 -71.8 Q 281 -75.7 283.7 -78.5 L 283.7 -78.5 L 283.7 -78.5 Q 289.2 -84.4 298.3 -84.4 L 298.3 -84.4 L 298.3 -84.4 Q 301.6 -84.4 303.9 -83.3 L 303.9 -83.3 L 314.9 -84.4 L 310.1 -59.4 L 310.1 -59.4 Q 309.9 -58.7 309.9 -57.3 L 309.9 -57.3 L 309.9 -57.3 Q 309.9 -55.9 310.8 -55 L 310.8 -55 L 310.8 -55 Q 311.7 -54.1 313 -53.9 L 313 -53.9 L 313 -53.9 Q 312.3 -51.8 310 -50.5 L 310 -50.5 L 310 -50.5 Q 307.6 -49.2 305 -49.2 L 305 -49.2 L 305 -49.2 Q 302.4 -49.2 300.6 -50.2 L 300.6 -50.2 L 300.6 -50.2 Q 298.9 -51.2 298.4 -52.9 L 298.4 -52.9 L 298.4 -52.9 Q 297.3 -51.3 295.2 -50.2 L 295.2 -50.2 L 295.2 -50.2 Q 293 -49.2 290.1 -49.2 L 290.1 -49.2 L 290.1 -49.2 Q 287.2 -49.2 284.8 -50 L 284.8 -50 L 284.8 -50 Q 282.4 -50.7 280.9 -52.4 Z M 294.4 -78.4 L 294.4 -78.4 L 294.4 -78.4 Q 293.7 -77.2 293.1 -75.3 L 293.1 -75.3 L 293.1 -75.3 Q 292.4 -73.3 291.4 -68.1 L 291.4 -68.1 L 291.4 -68.1 Q 290.3 -62.9 290.3 -59.2 L 290.3 -59.2 L 290.3 -59.2 Q 290.3 -55.5 290.9 -54.4 L 290.9 -54.4 L 290.9 -54.4 Q 291.5 -53.3 292.5 -53.3 L 292.5 -53.3 L 292.5 -53.3 Q 294.5 -53.3 296 -55.3 L 296 -55.3 L 296 -55.3 Q 297.5 -57.2 298.1 -60.7 L 298.1 -60.7 L 301.5 -79.4 L 301.5 -79.4 Q 300.2 -80.6 298.6 -80.6 L 298.6 -80.6 L 298.6 -80.6 Q 297 -80.6 296.1 -80.1 L 296.1 -80.1 L 296.1 -80.1 Q 295.2 -79.5 294.4 -78.4 Z M 333.6 -54 L 333.6 -54 L 333.6 -54 Q 331.6 -49.2 325.3 -49.2 L 325.3 -49.2 L 325.3 -49.2 Q 322.1 -49.2 320.1 -51.4 L 320.1 -51.4 L 320.1 -51.4 Q 318.4 -53.3 318.4 -55.4 L 318.4 -55.4 L 318.4 -55.4 Q 318.4 -60.2 320.6 -70.7 L 320.6 -70.7 L 325.3 -95.3 L 338.3 -96.6 L 332.1 -64.2 L 332.1 -64.2 Q 331 -59.4 331 -57.8 L 331 -57.8 L 331 -57.8 Q 331 -54.1 333.6 -54 Z M 354.4 -54 L 354.4 -54 L 354.4 -54 Q 352.4 -49.2 346 -49.2 L 346 -49.2 L 346 -49.2 Q 342.8 -49.2 340.8 -51.4 L 340.8 -51.4 L 340.8 -51.4 Q 339.1 -53.3 339.1 -55.4 L 339.1 -55.4 L 339.1 -55.4 Q 339.1 -60.2 341.4 -70.7 L 341.4 -70.7 L 346 -95.3 L 359 -96.6 L 352.8 -64.2 L 352.8 -64.2 Q 351.7 -59.4 351.7 -57.8 L 351.7 -57.8 L 351.7 -57.8 Q 351.7 -54.1 354.4 -54 Z M 385.7 -61.3 L 385.7 -61.3 L 385.7 -61.3 Q 387.3 -60.2 387.3 -57.8 L 387.3 -57.8 L 387.3 -57.8 Q 387.3 -55.4 386.1 -53.9 L 386.1 -53.9 L 386.1 -53.9 Q 384.9 -52.3 382.9 -51.3 L 382.9 -51.3 L 382.9 -51.3 Q 378.8 -49.2 374.4 -49.2 L 374.4 -49.2 L 374.4 -49.2 Q 370 -49.2 367.4 -50.2 L 367.4 -50.2 L 367.4 -50.2 Q 364.8 -51.1 363.1 -52.9 L 363.1 -52.9 L 363.1 -52.9 Q 359.7 -56.3 359.7 -62.5 L 359.7 -62.5 L 359.7 -62.5 Q 359.7 -72.2 364.9 -78.1 L 364.9 -78.1 L 364.9 -78.1 Q 370.6 -84.4 380.3 -84.4 L 380.3 -84.4 L 380.3 -84.4 Q 386.4 -84.4 389.4 -81.8 L 389.4 -81.8 L 389.4 -81.8 Q 391.7 -79.9 391.7 -76.8 L 391.7 -76.8 L 391.7 -76.8 Q 391.7 -65.5 372.2 -65.5 L 372.2 -65.5 L 372.2 -65.5 Q 372 -63.9 372 -62.5 L 372 -62.5 L 372 -62.5 Q 372 -59.5 373.3 -58.4 L 373.3 -58.4 L 373.3 -58.4 Q 374.6 -57.3 377 -57.3 L 377 -57.3 L 377 -57.3 Q 379.5 -57.3 382 -58.4 L 382 -58.4 L 382 -58.4 Q 384.6 -59.5 385.7 -61.3 Z M 372.7 -68.3 L 372.7 -68.3 L 372.7 -68.3 Q 377.2 -68.3 379.8 -71.1 L 379.8 -71.1 L 379.8 -71.1 Q 382.5 -73.8 382.5 -78.1 L 382.5 -78.1 L 382.5 -78.1 Q 382.5 -79.5 381.9 -80.3 L 381.9 -80.3 L 381.9 -80.3 Q 381.4 -81.1 380.3 -81.1 L 380.3 -81.1 L 380.3 -81.1 Q 379.2 -81.1 378.3 -80.7 L 378.3 -80.7 L 378.3 -80.7 Q 377.3 -80.3 376.4 -78.9 L 376.4 -78.9 L 376.4 -78.9 Q 374 -75.7 372.7 -68.3 Z M 413.9 -68.5 L 413.9 -68.5 L 413.9 -68.5 Q 416.2 -72.6 416.2 -76.7 L 416.2 -76.7 L 416.2 -76.7 Q 416.2 -79.5 414.2 -79.5 L 414.2 -79.5 L 414.2 -79.5 Q 412.7 -79.5 411.1 -76.9 L 411.1 -76.9 L 411.1 -76.9 Q 409.4 -74.2 408.9 -70.8 L 408.9 -70.8 L 405.6 -50.5 L 392.3 -49.2 L 398.8 -83.1 L 409.4 -84.4 L 408.3 -77.9 L 408.3 -77.9 Q 411.4 -84.4 418.4 -84.4 L 418.4 -84.4 L 418.4 -84.4 Q 422.1 -84.4 424.2 -82.5 L 424.2 -82.5 L 424.2 -82.5 Q 426.2 -80.6 426.2 -76.6 L 426.2 -76.6 L 426.2 -76.6 Q 426.2 -72.7 423.6 -70.2 L 423.6 -70.2 L 423.6 -70.2 Q 421 -67.7 416.6 -67.7 L 416.6 -67.7 L 416.6 -67.7 Q 414.7 -67.7 413.9 -68.5 Z M 447.5 -57.7 L 447.5 -57.7 L 447.5 -57.7 Q 444.2 -54.3 438.1 -54.3 L 438.1 -54.3 L 438.1 -54.3 Q 430.5 -54.3 428.9 -59.8 L 428.9 -59.8 L 428.9 -59.8 Q 428.4 -61.5 428.4 -63.3 L 428.4 -63.3 L 428.4 -63.3 Q 428.4 -65.2 428.8 -67.1 L 428.8 -67.1 L 431.8 -83.1 L 444.8 -84.4 L 441.3 -65.8 L 441.3 -65.8 Q 441.1 -64.9 441 -64.1 L 441 -64.1 L 441 -64.1 Q 440.8 -63.2 440.8 -62.2 L 440.8 -62.2 L 440.8 -62.2 Q 440.8 -61.3 441.1 -60.7 L 441.1 -60.7 L 441.1 -60.7 Q 441.4 -60.1 441.9 -59.7 L 441.9 -59.7 L 441.9 -59.7 Q 442.6 -59.2 444 -59.2 L 444 -59.2 L 444 -59.2 Q 445.4 -59.2 446.6 -60.9 L 446.6 -60.9 L 446.6 -60.9 Q 447.7 -62.5 448.3 -65.4 L 448.3 -65.4 L 451.8 -83.1 L 464.4 -84.4 L 459.6 -59.3 L 459.6 -59.3 Q 457.3 -47 452.4 -42.1 L 452.4 -42.1 L 452.4 -42.1 Q 449.9 -39.6 446.7 -38.6 L 446.7 -38.6 L 446.7 -38.6 Q 443.5 -37.6 439.3 -37.6 L 439.3 -37.6 L 439.3 -37.6 Q 432.6 -37.6 428.7 -39.7 L 428.7 -39.7 L 428.7 -39.7 Q 424.9 -41.8 424.9 -45.4 L 424.9 -45.4 L 424.9 -45.4 Q 424.9 -48 426.9 -49.5 L 426.9 -49.5 L 426.9 -49.5 Q 428.9 -51 431.9 -51 L 431.9 -51 L 431.9 -51 Q 434.6 -51 436.7 -49.8 L 436.7 -49.8 L 436.7 -49.8 Q 437.9 -49.1 438.5 -48.2 L 438.5 -48.2 L 438.5 -48.2 Q 437 -47 437 -44.9 L 437 -44.9 L 437 -44.9 Q 437 -42 439.5 -42 L 439.5 -42 L 439.5 -42 Q 443.8 -42 446.2 -51.8 L 446.2 -51.8 L 446.2 -51.8 Q 446.9 -54.6 447.5 -57.7 Z" fill="url(#editing-rainbow-gradient)"></path></g></g><style>text {
  font-size: 64px;
  font-family: Arial Black;
  dominant-baseline: central;
  text-anchor: middle;
}</style></svg>